<?xml version="1.0" encoding="UTF-8"?><svg id="Layer_2" xmlns="http://www.w3.org/2000/svg" width="32" height="32" viewBox="0 0 32 32"><g id="Layer_1-2"><rect width="32" height="32" fill="none" stroke-width="0"/><path d="M18.93,15.95l6.49-2.31,1.5-.53,1.03-.37,1.42-.51c-2.08-5.85-7.67-10.04-14.23-10.04v11.07c1.75,0,3.24,1.12,3.79,2.68Z" fill="#12bef0" stroke-width="0"/><path d="M26.91,13.11l-1.5.53-6.49,2.31c.15.42.24.87.24,1.35,0,.23-.02.46-.06.68l6.78,1.16,1.57.27,1.07.18c.13-.75.19-1.51.19-2.3,0-1.6-.28-3.13-.78-4.56l-1.03.37Z" fill="#d6e242" stroke-width="0"/><path d="M17.01,20.86l3.19,6.1c2.95-1.55,5.1-4.41,5.68-7.81l-6.78-1.16c-.21,1.25-1,2.3-2.09,2.88Z" fill="#76c349" stroke-width="0"/><path d="M20.21,26.96l-3.19-6.1c-.56.3-1.2.47-1.88.47-2.22,0-4.03-1.8-4.03-4.03s1.8-4.03,4.03-4.03V4.8c-2.09,0-4.06.51-5.79,1.42-3.39,1.78-5.87,5.06-6.53,8.97-.12.69-.18,1.39-.18,2.11,0,1.47.26,2.88.72,4.19,1.72,4.84,6.35,8.3,11.78,8.3,2.1,0,4.08-.52,5.81-1.43l-.74-1.41Z" fill="#0177d4" stroke-width="0"/></g></svg>